<svg version="1.1" xmlns="http://www.w3.org/2000/svg" viewBox="0 0 1012.8437499999999 445" width="1012.8437499999999" height="445">
  <!-- svg-source:excalidraw -->
  
  <defs>
    <style class="style-fonts">
      @font-face {
        font-family: "Virgil";
        src: url("https://excalidraw.com/Virgil.woff2");
      }
      @font-face {
        font-family: "Cascadia";
        src: url("https://excalidraw.com/Cascadia.woff2");
      }
    </style>
  </defs>
  <rect x="0" y="0" width="1012.8437499999999" height="445" fill="#ffffff"></rect><g stroke-linecap="round" transform="translate(16.999999999999886 121) rotate(0 430.5 88.5)"><path d="M31.13 -0.36 L836.45 0.81 L843.31 0 L853.1 8.74 L857.24 14.33 L861.04 22.99 L858.58 151 L858.58 157.79 L851.3 169.08 L844.86 176.54 L828.69 176.34 L22.84 177.84 L18.88 176.7 L6.27 168.49 L5.26 165.81 L1.72 152.45 L-1.43 32.97 L3.09 19.38 L9.85 8.2 L16.06 3.14 L30.46 -0.82" stroke="none" stroke-width="0" fill="#fab005"></path><path d="M32 0 M32 0 C217.15 -1.01, 402.65 -0.64, 829 0 M32 0 C295.71 -0.45, 560.02 -0.14, 829 0 M829 0 C848.51 0.58, 861.39 8.76, 861 32 M829 0 C848.22 1.48, 862.94 9.07, 861 32 M861 32 C859.9 73.76, 863.51 113.76, 861 145 M861 32 C860.48 63.47, 860.53 94.15, 861 145 M861 145 C862.88 167.08, 851.21 178.45, 829 177 M861 145 C862.75 165.99, 850.15 175.92, 829 177 M829 177 C549.4 174.48, 268.81 175.64, 32 177 M829 177 C650.07 178.71, 471.14 179.08, 32 177 M32 177 C10.64 178.15, 1.56 164.79, 0 145 M32 177 C11.82 176.3, 0.62 166.61, 0 145 M0 145 C-0.85 107.7, 0.03 68.32, 0 32 M0 145 C1.47 117.89, 1.02 91.68, 0 32 M0 32 C-1.47 9.2, 11.07 -0.57, 32 0 M0 32 C-1.65 8.49, 12.81 1.39, 32 0" stroke="#000000" stroke-width="1" fill="none"></path></g><g stroke-linecap="round" transform="translate(48.999999999999886 175) rotate(0 65.5 37.5)"><path d="M20.44 -1.32 L111.74 0.64 L124.99 2.31 L128.71 8.35 L130 12.48 L129.01 55.19 L129.45 68.07 L125.2 71.04 L112.58 74.68 L16.89 76.34 L6.17 72.36 L3.89 68.49 L-1.05 60.79 L-1.22 14.21 L6.64 6.44 L10.17 3.14 L17.87 1.27" stroke="none" stroke-width="0" fill="#7950f2"></path><path d="M18.75 0 M18.75 0 C51.81 -0.6, 82.63 1.23, 112.25 0 M18.75 0 C55.68 1.7, 91.89 0.96, 112.25 0 M112.25 0 C125.62 1.62, 130.86 5.6, 131 18.75 M112.25 0 C126.81 -0.34, 131.72 5.87, 131 18.75 M131 18.75 C129.84 27.61, 130.09 35.55, 131 56.25 M131 18.75 C131.36 26.92, 131.48 33.78, 131 56.25 M131 56.25 C131.71 67.86, 126.07 76.01, 112.25 75 M131 56.25 C132 69.63, 122.83 73.75, 112.25 75 M112.25 75 C78.52 74.82, 46.8 75.87, 18.75 75 M112.25 75 C86.76 74.49, 61.17 75.61, 18.75 75 M18.75 75 C5.35 75.29, 0 68.93, 0 56.25 M18.75 75 C6.26 76.35, 2 67.3, 0 56.25 M0 56.25 C-1.39 45.92, 0.79 32.87, 0 18.75 M0 56.25 C-0.09 45.95, 0.7 33.96, 0 18.75 M0 18.75 C-0.18 5.37, 8.15 0.66, 18.75 0 M0 18.75 C0.36 5.91, 6.16 -2.29, 18.75 0" stroke="#000000" stroke-width="1" fill="none"></path></g><g transform="translate(73.48437499999989 195.70000000000005) rotate(0 41.015625 16.80000000000001)"><text x="41.015625" y="0" font-family="Cascadia, Segoe UI Emoji" font-size="28px" fill="#000000" text-anchor="middle" style="white-space: pre;" direction="ltr" dominant-baseline="text-before-edge">inode</text></g><g stroke-linecap="round" transform="translate(241.9999999999999 173) rotate(0 69 38)"><path d="M20.75 -0.37 L120.96 -0.88 L131.85 3.33 L134.84 8.16 L139.65 14.29 L139.64 58.57 L137.17 69.83 L128.91 73.9 L120.84 75.71 L19.37 76.87 L9.05 73.19 L2.02 70.37 L0 62.08 L-0.03 13.4 L4.07 6.53 L6 2.43 L17.83 -1.41" stroke="none" stroke-width="0" fill="#7950f2"></path><path d="M19 0 M19 0 C39.97 1.57, 60.62 0, 119 0 M19 0 C53.05 -0.23, 86.48 -1.49, 119 0 M119 0 C130.58 1.08, 137.29 6.83, 138 19 M119 0 C130.96 -0.47, 138.89 7.07, 138 19 M138 19 C137.93 28.17, 137.5 40.72, 138 57 M138 19 C138.14 28.7, 138.64 39.26, 138 57 M138 57 C136.74 69.73, 133.43 77.74, 119 76 M138 57 C136.78 70.86, 132.96 75.27, 119 76 M119 76 C90.44 77.5, 63.31 75.04, 19 76 M119 76 C90.22 77.11, 60.62 76.91, 19 76 M19 76 C4.34 77.72, 0.9 68.15, 0 57 M19 76 C5.91 74.09, 2.02 70.21, 0 57 M0 57 C1.22 41.09, 1.59 27.17, 0 19 M0 57 C0.44 46.42, 1.05 36.82, 0 19 M0 19 C-1.18 5.38, 6.73 -0.94, 19 0 M0 19 C-0.13 6.41, 7.38 1.87, 19 0" stroke="#000000" stroke-width="1" fill="none"></path></g><g transform="translate(278.1874999999999 194.20000000000005) rotate(0 32.8125 16.80000000000001)"><text x="32.8125" y="0" font-family="Cascadia, Segoe UI Emoji" font-size="28px" fill="#000000" text-anchor="middle" style="white-space: pre;" direction="ltr" dominant-baseline="text-before-edge">file</text></g><g stroke-linecap="round" transform="translate(436.9999999999999 172) rotate(0 78.5 38)"><path d="M19.5 -0.61 L137.59 0.77 L150.22 2.1 L155.14 7.56 L156.48 13.4 L156.35 58.09 L153.43 68.87 L149.58 73.51 L138.01 77.17 L20.74 74.74 L7.49 75.09 L4.41 67.51 L1.34 62.58 L-0.34 14.29 L3.55 8.55 L7.57 3.61 L20.73 -1.52" stroke="none" stroke-width="0" fill="#7950f2"></path><path d="M19 0 M19 0 C54.31 -0.82, 88 -1.21, 138 0 M19 0 C42.09 -0.72, 65.86 0.34, 138 0 M138 0 C151.14 1.49, 155.66 4.44, 157 19 M138 0 C151.78 -1.93, 158.54 4.75, 157 19 M157 19 C157.7 27.65, 158.93 38.27, 157 57 M157 19 C156.35 28.1, 156.86 37.77, 157 57 M157 57 C158.63 69.54, 152.45 76.36, 138 76 M157 57 C157.83 69.1, 151.12 74.13, 138 76 M138 76 C102.91 78, 65.71 74.19, 19 76 M138 76 C109.61 74.9, 82.33 76.46, 19 76 M19 76 C4.66 74.98, 1.34 68.1, 0 57 M19 76 C5.15 74.43, -0.24 70.33, 0 57 M0 57 C-2.16 42.34, -0.9 26.78, 0 19 M0 57 C0.05 49.3, 1.1 39.42, 0 19 M0 19 C1.76 6.19, 8.08 0.22, 19 0 M0 19 C-2.04 5.82, 7.52 -2.09, 19 0" stroke="#000000" stroke-width="1" fill="none"></path></g><g transform="translate(466.2812499999999 193.20000000000005) rotate(0 49.21875 16.80000000000001)"><text x="49.21875" y="0" font-family="Cascadia, Segoe UI Emoji" font-size="28px" fill="#000000" text-anchor="middle" style="white-space: pre;" direction="ltr" dominant-baseline="text-before-edge">dentry</text></g><g stroke-linecap="round" transform="translate(658.9999999999999 173) rotate(0 86 35.5)"><path d="M19.42 -0.74 L152.41 -0.13 L161.43 -0.04 L165.97 3.78 L173.72 13.45 L172.25 62.95 L163.41 70.26 L154.1 72.75 L17.97 69.23 L9.54 70.92 L2.62 67.68 L-0.79 55.64 L1.89 14.07 L3.77 6.92 L5.63 3.03 L16.43 1.14" stroke="none" stroke-width="0" fill="#7950f2"></path><path d="M17.75 0 M17.75 0 C62.44 0.64, 104.37 -0.93, 154.25 0 M17.75 0 C70.3 -0.04, 125.41 0.45, 154.25 0 M154.25 0 C167.31 -1.37, 172.56 6.44, 172 17.75 M154.25 0 C165.86 1.88, 173.26 6.06, 172 17.75 M172 17.75 C171.47 27.64, 172.77 33.9, 172 53.25 M172 17.75 C171.31 28.74, 171.47 37.62, 172 53.25 M172 53.25 C173.63 63.57, 165.17 69.33, 154.25 71 M172 53.25 C174.19 64.08, 167.1 71.91, 154.25 71 M154.25 71 C102.23 70.99, 51.26 71.74, 17.75 71 M154.25 71 C121.73 70.43, 90.81 70.14, 17.75 71 M17.75 71 C4.58 70.32, -1.7 65.11, 0 53.25 M17.75 71 C7.23 70.81, -2.26 63.99, 0 53.25 M0 53.25 C0.92 41.34, -0.7 30.88, 0 17.75 M0 53.25 C-0.37 42.7, 0.53 34.02, 0 17.75 M0 17.75 C-0.47 7.22, 5.3 -1.24, 17.75 0 M0 17.75 C2.05 4.51, 7.1 0.73, 17.75 0" stroke="#000000" stroke-width="1" fill="none"></path></g><g transform="translate(679.3749999999999 191.70000000000005) rotate(0 65.625 16.80000000000001)"><text x="65.625" y="0" font-family="Cascadia, Segoe UI Emoji" font-size="28px" fill="#000000" text-anchor="middle" style="white-space: pre;" direction="ltr" dominant-baseline="text-before-edge">superblk</text></g><g stroke-linecap="round" transform="translate(82.00000000000011 350) rotate(0 96.49999999999989 42)"><path d="M21.34 0.81 L170.51 0.34 L180.81 2.61 L187.72 5.66 L191.56 14.76 L194.15 63.98 L191 71.9 L184.91 79.44 L170.85 83.34 L22.74 83.21 L12.12 83.4 L6.98 78.91 L-0.42 67.06 L-1.11 16.22 L5.37 3.4 L13.39 1.6 L21.12 1.44" stroke="none" stroke-width="0" fill="#ced4da"></path><path d="M21 0 M21 0 C58.79 0.46, 95.19 -2.5, 172 0 M21 0 C70.37 -0.76, 120.44 -0.6, 172 0 M172 0 C186.34 1.92, 193.13 6.16, 193 21 M172 0 C184.59 0.76, 194.49 9.25, 193 21 M193 21 C195.28 36.29, 191.77 51.14, 193 63 M193 21 C192.76 37.89, 193.41 52.35, 193 63 M193 63 C192.48 78.64, 184.23 85.65, 172 84 M193 63 C194.82 74.83, 187.98 86.09, 172 84 M172 84 C120.37 82.42, 66.94 82.75, 21 84 M172 84 C139.79 83.64, 108.51 83.68, 21 84 M21 84 C8.26 85.86, -0.2 78.05, 0 63 M21 84 C7.65 86.07, -1.95 77.89, 0 63 M0 63 C-1.71 49.89, 0.03 35.91, 0 21 M0 63 C0.2 48.5, -0.77 32.38, 0 21 M0 21 C1.81 5.61, 8.42 -0.15, 21 0 M0 21 C2.2 8.79, 6.96 1.02, 21 0" stroke="#000000" stroke-width="1" fill="none"></path></g><g transform="translate(104.671875 375.20000000000005) rotate(0 73.82812499999994 16.80000000000001)"><text x="73.828125" y="0" font-family="Cascadia, Segoe UI Emoji" font-size="28px" fill="#000000" text-anchor="middle" style="white-space: pre;" direction="ltr" dominant-baseline="text-before-edge">fat32-vfs</text></g><g stroke-linecap="round" transform="translate(337.9999999999999 348) rotate(0 90.5 43.5)"><path d="M21.35 -0.35 L161.1 0.94 L171.33 2.54 L179.58 6.73 L182.31 18.23 L179.12 66.97 L179.76 79.51 L171.16 82.31 L160.54 86.65 L22.54 86.98 L6.71 82.13 L3.31 77.65 L-0.77 70.48 L-0.69 17.91 L7.29 5.23 L13.28 1.92 L23.55 -1.69" stroke="none" stroke-width="0" fill="#ced4da"></path><path d="M21.75 0 M21.75 0 C67.9 -2.48, 114.5 -0.74, 159.25 0 M21.75 0 C52.94 0.22, 83.59 -0.75, 159.25 0 M159.25 0 C173.69 1.81, 179.61 8.67, 181 21.75 M159.25 0 C173.58 2.2, 182.79 7.21, 181 21.75 M181 21.75 C182.7 35.76, 181.67 52.81, 181 65.25 M181 21.75 C180.24 35.38, 180.55 48.46, 181 65.25 M181 65.25 C182.87 80, 173 86.06, 159.25 87 M181 65.25 C182.74 79.23, 175.83 86.66, 159.25 87 M159.25 87 C115.22 86.39, 71.56 87.36, 21.75 87 M159.25 87 C103.71 88.36, 50.41 87.9, 21.75 87 M21.75 87 C7.7 85.82, 0.32 79.93, 0 65.25 M21.75 87 C7.6 86.17, -0.66 78.36, 0 65.25 M0 65.25 C1.5 53.59, 0.93 41.67, 0 21.75 M0 65.25 C0.43 55.91, 0.17 47.86, 0 21.75 M0 21.75 C0.83 6.24, 8.68 -0.18, 21.75 0 M0 21.75 C-0.94 5.94, 9.08 -1.34, 21.75 0" stroke="#000000" stroke-width="1" fill="none"></path></g><g transform="translate(395.6874999999999 374.70000000000005) rotate(0 32.8125 16.80000000000001)"><text x="32.8125" y="0" font-family="Cascadia, Segoe UI Emoji" font-size="28px" fill="#000000" text-anchor="middle" style="white-space: pre;" direction="ltr" dominant-baseline="text-before-edge">dbfs</text></g><g transform="translate(951.9999999999999 174) rotate(0 24.609375 16.80000000000001)"><text x="0" y="0" font-family="Cascadia, Segoe UI Emoji" font-size="28px" fill="#000000" text-anchor="start" style="white-space: pre;" direction="ltr" dominant-baseline="text-before-edge">VFS</text></g><g stroke-linecap="round" transform="translate(587.9999999999999 347) rotate(0 85 41)"><path d="M21.65 1.19 L150.9 -1.18 L163.8 2.36 L168.52 7.05 L168.49 17.13 L169.93 62.53 L168.68 74.96 L160.99 78.72 L151.18 82.8 L21.3 82.39 L8.97 79.58 L2.62 73.82 L-0.31 66.61 L-1.31 16.87 L1.98 9.5 L7.47 1.38 L20.99 1.99" stroke="none" stroke-width="0" fill="#ced4da"></path><path d="M20.5 0 M20.5 0 C72.49 2.26, 122.71 1.86, 149.5 0 M20.5 0 C64.21 -1.12, 108.03 -1.11, 149.5 0 M149.5 0 C161.56 0.93, 169.71 8.7, 170 20.5 M149.5 0 C160.89 -0.01, 170.12 6.72, 170 20.5 M170 20.5 C168.96 29.69, 168.22 40.87, 170 61.5 M170 20.5 C170.46 32.03, 170.82 44.85, 170 61.5 M170 61.5 C169.76 74.72, 163.62 81.69, 149.5 82 M170 61.5 C169.9 76.63, 164.67 80.96, 149.5 82 M149.5 82 C122.57 81.33, 93.66 82.7, 20.5 82 M149.5 82 C101.5 81.53, 52.8 83.26, 20.5 82 M20.5 82 C8.12 83.6, 1.12 73.76, 0 61.5 M20.5 82 C5.44 79.94, 0.54 76.06, 0 61.5 M0 61.5 C1.06 52.62, -0.55 40.45, 0 20.5 M0 61.5 C1 51.77, 0.82 40.39, 0 20.5 M0 20.5 C0.62 6.32, 8.79 -1.52, 20.5 0 M0 20.5 C-1.88 5.99, 8.74 -1, 20.5 0" stroke="#000000" stroke-width="1" fill="none"></path></g><g transform="translate(631.9843749999999 371.20000000000005) rotate(0 41.015625 16.80000000000001)"><text x="41.015625" y="0" font-family="Cascadia, Segoe UI Emoji" font-size="28px" fill="#000000" text-anchor="middle" style="white-space: pre;" direction="ltr" dominant-baseline="text-before-edge">ramfs</text></g><g stroke-linecap="round" transform="translate(10 10) rotate(0 430.49999999999994 29)"><path d="M15.6 -1.52 L847.82 -1.49 L854.96 2.53 L861.86 7.37 L861.78 43.42 L860.67 50.48 L856.96 52.94 L851.21 57.58 L845.74 59.08 L16.42 59.32 L7.28 55.97 L3.84 52.85 L-0.27 48.07 L0.44 43.6 L-1.01 8.35 L5.59 1.22 L15.38 0.65" stroke="none" stroke-width="0" fill="#82c91e"></path><path d="M14.5 0 M14.5 0 C190.32 1.55, 368.16 1.82, 846.5 0 M14.5 0 C206.42 2, 397.72 1.99, 846.5 0 M846.5 0 C857.01 -0.62, 860.12 4.06, 861 14.5 M846.5 0 C855.09 1.04, 862.43 5.89, 861 14.5 M861 14.5 C862.51 22.12, 862.86 31.62, 861 43.5 M861 14.5 C861.96 23.69, 861.85 34.63, 861 43.5 M861 43.5 C862.44 53.66, 857.84 56.32, 846.5 58 M861 43.5 C861.12 53.21, 857.95 56.27, 846.5 58 M846.5 58 C557.09 57.02, 268.46 56.46, 14.5 58 M846.5 58 C576.19 58.51, 306.07 58.6, 14.5 58 M14.5 58 C6.24 59.7, -1.23 53.1, 0 43.5 M14.5 58 C3.44 58.47, 1.32 52.77, 0 43.5 M0 43.5 C0.99 34.45, 0.26 25.53, 0 14.5 M0 43.5 C0.25 33.41, -0.01 23.59, 0 14.5 M0 14.5 C0.34 6.33, 6.33 -0.83, 14.5 0 M0 14.5 C-1.66 3.49, 5.63 0.06, 14.5 0" stroke="#000000" stroke-width="1" fill="none"></path></g><g transform="translate(353.9999999999999 20) rotate(0 57.421875 16.80000000000001)"><text x="0" y="0" font-family="Cascadia, Segoe UI Emoji" font-size="28px" fill="#000000" text-anchor="start" style="white-space: pre;" direction="ltr" dominant-baseline="text-before-edge">syscall</text></g><g transform="translate(887.9999999999999 364) rotate(0 57.421875 16.80000000000001)"><text x="0" y="0" font-family="Cascadia, Segoe UI Emoji" font-size="28px" fill="#000000" text-anchor="start" style="white-space: pre;" direction="ltr" dominant-baseline="text-before-edge">disk-fs</text></g><g stroke-linecap="round"><g transform="translate(178.9999999999999 342) rotate(0 43.89939774140248 -21.11362405344846)"><path d="M-0.24 -0.17 C14.64 -7.06, 74.77 -35.1, 89.63 -42.06 M-1.83 -1.31 C12.83 -7.93, 72.98 -34.01, 88.48 -40.55" stroke="#000000" stroke-width="1" fill="none"></path></g><g transform="translate(178.9999999999999 342) rotate(0 43.89939774140248 -21.11362405344846)"><path d="M66.33 -20.63 C73.87 -28.61, 81.33 -33.3, 88.81 -41.96 M66.99 -20.6 C71.38 -25.72, 78.34 -29.97, 88.55 -40.64" stroke="#000000" stroke-width="1" fill="none"></path></g><g transform="translate(178.9999999999999 342) rotate(0 43.89939774140248 -21.11362405344846)"><path d="M58.24 -39.49 C68.34 -41.23, 78.47 -39.68, 88.81 -41.96 M58.9 -39.46 C65.46 -39.81, 74.5 -39.22, 88.55 -40.64" stroke="#000000" stroke-width="1" fill="none"></path></g></g><mask></mask><g stroke-linecap="round"><g transform="translate(423.9999999999999 340) rotate(0 0.2681923259908672 -20.948591950698756)"><path d="M-0.67 -0.23 C-0.46 -6.91, 0.85 -33.31, 0.91 -40.04 M1.18 -1.4 C1.35 -8.41, 0.84 -34.77, 0.44 -41.67" stroke="#000000" stroke-width="1" fill="none"></path></g><g transform="translate(423.9999999999999 340) rotate(0 0.2681923259908672 -20.948591950698756)"><path d="M7.74 -21.14 C7.65 -28.25, 4.63 -32.05, -0.12 -41.07 M7.13 -22.76 C5.56 -27.17, 4.14 -33.1, -0.01 -42.63" stroke="#000000" stroke-width="1" fill="none"></path></g><g transform="translate(423.9999999999999 340) rotate(0 0.2681923259908672 -20.948591950698756)"><path d="M-6.28 -20.65 C-2.61 -27.82, -1.86 -31.75, -0.12 -41.07 M-6.89 -22.27 C-4.89 -26.91, -2.73 -32.97, -0.01 -42.63" stroke="#000000" stroke-width="1" fill="none"></path></g></g><mask></mask><g stroke-linecap="round"><g transform="translate(674.9999999999999 338) rotate(0 -10.364951068907999 -20.65304725691675)"><path d="M1 -0.3 C-2.66 -7.09, -18.04 -34.22, -21.73 -41 M0.07 -1.51 C-3.23 -8.15, -15.73 -33.53, -19.41 -39.99" stroke="#000000" stroke-width="1" fill="none"></path></g><g transform="translate(674.9999999999999 338) rotate(0 -10.364951068907999 -20.65304725691675)"><path d="M-3.2 -26.02 C-9.7 -29.8, -15.11 -33.33, -19 -41.68 M-3.15 -24.92 C-7.03 -30.01, -13.67 -35.16, -19.53 -40.74" stroke="#000000" stroke-width="1" fill="none"></path></g><g transform="translate(674.9999999999999 338) rotate(0 -10.364951068907999 -20.65304725691675)"><path d="M-16.87 -18.83 C-18.96 -25.04, -19.98 -30.87, -19 -41.68 M-16.82 -17.73 C-16.53 -24.94, -18.97 -32.3, -19.53 -40.74" stroke="#000000" stroke-width="1" fill="none"></path></g></g><mask></mask><g stroke-linecap="round"><g transform="translate(410.4100573320326 112) rotate(0 -0.7393604191488521 -19.991208135648606)"><path d="M0.18 0.63 C0.1 -5.78, -0.2 -32.13, -0.45 -38.66 M-1.19 -0.09 C-1.45 -6.85, -1.88 -33.84, -1.51 -40.61" stroke="#000000" stroke-width="1" fill="none"></path></g><g transform="translate(410.4100573320326 112) rotate(0 -0.7393604191488521 -19.991208135648606)"><path d="M5.93 -22.56 C3.54 -29.55, 1.72 -33.17, -1.99 -38.95 M4.78 -22.21 C2.7 -28.4, 1.25 -35.89, -0.61 -41.14" stroke="#000000" stroke-width="1" fill="none"></path></g><g transform="translate(410.4100573320326 112) rotate(0 -0.7393604191488521 -19.991208135648606)"><path d="M-7.41 -22.74 C-5.75 -29.7, -3.53 -33.26, -1.99 -38.95 M-8.56 -22.39 C-5.95 -28.62, -2.72 -36.05, -0.61 -41.14" stroke="#000000" stroke-width="1" fill="none"></path></g></g><mask></mask></svg>